<svg width="126" height="126" viewBox="0 0 126 126" fill="none" xmlns="http://www.w3.org/2000/svg">
<path fill-rule="evenodd" clip-rule="evenodd" d="M115.5 63C115.5 91.9949 91.9949 115.5 63 115.5C34.0051 115.5 10.5 91.9949 10.5 63C10.5 34.0051 34.0051 10.5 63 10.5C91.9949 10.5 115.5 34.0051 115.5 63ZM125.5 63C125.5 97.5178 97.5178 125.5 63 125.5C28.4822 125.5 0.5 97.5178 0.5 63C0.5 28.4822 28.4822 0.5 63 0.5C97.5178 0.5 125.5 28.4822 125.5 63ZM62.5 87.5C76.3071 87.5 87.5 76.3071 87.5 62.5C87.5 48.6929 76.3071 37.5 62.5 37.5C48.6929 37.5 37.5 48.6929 37.5 62.5C37.5 76.3071 48.6929 87.5 62.5 87.5Z" fill="#202020"/>
</svg>
