<svg width="126" height="126" viewBox="0 0 126 126" fill="none" xmlns="http://www.w3.org/2000/svg">
<path fill-rule="evenodd" clip-rule="evenodd" d="M59 4.5C59 2.29086 60.7909 0.5 63 0.5C65.2091 0.5 67 2.29086 67 4.5V21.5C67 23.7091 65.2091 25.5 63 25.5C60.7909 25.5 59 23.7091 59 21.5V4.5ZM88 63C88 76.8071 76.8071 88 63 88C49.1929 88 38 76.8071 38 63C38 49.1929 49.1929 38 63 38C76.8071 38 88 49.1929 88 63ZM59 104.5C59 102.291 60.7909 100.5 63 100.5C65.2091 100.5 67 102.291 67 104.5V121.5C67 123.709 65.2091 125.5 63 125.5C60.7909 125.5 59 123.709 59 121.5V104.5ZM36.4835 89.5165C34.9214 87.9544 32.3887 87.9544 30.8266 89.5165L18.8058 101.537C17.2437 103.099 17.2437 105.632 18.8058 107.194C20.3679 108.756 22.9006 108.756 24.4627 107.194L36.4835 95.1734C38.0456 93.6113 38.0456 91.0786 36.4835 89.5165ZM107.194 18.8058C105.632 17.2437 103.099 17.2437 101.537 18.8058L89.5165 30.8266C87.9544 32.3887 87.9544 34.9214 89.5165 36.4835C91.0786 38.0456 93.6113 38.0456 95.1734 36.4835L107.194 24.4627C108.756 22.9006 108.756 20.3679 107.194 18.8058ZM21.5 59C23.7091 59 25.5 60.7909 25.5 63C25.5 65.2091 23.7091 67 21.5 67L4.5 67C2.29086 67 0.5 65.2091 0.5 63C0.5 60.7909 2.29086 59 4.5 59L21.5 59ZM36.4835 36.4835C38.0456 34.9214 38.0456 32.3887 36.4835 30.8266L24.4627 18.8058C22.9006 17.2437 20.3679 17.2437 18.8058 18.8058C17.2437 20.3679 17.2437 22.9006 18.8058 24.4627L30.8266 36.4835C32.3887 38.0456 34.9214 38.0456 36.4835 36.4835ZM121.5 59C123.709 59 125.5 60.7909 125.5 63C125.5 65.2091 123.709 67 121.5 67L104.5 67C102.291 67 100.5 65.2091 100.5 63C100.5 60.7909 102.291 59 104.5 59L121.5 59ZM107.194 107.194C108.756 105.632 108.756 103.099 107.194 101.537L95.1734 89.5165C93.6113 87.9544 91.0786 87.9544 89.5165 89.5165C87.9544 91.0786 87.9544 93.6113 89.5165 95.1734L101.537 107.194C103.099 108.756 105.632 108.756 107.194 107.194Z" fill="#202020"/>
</svg>
